#!OML:ASF F:\VICON\USERDATA\INSTALL\rory3\rory3.ASF
:FULLY-SPECIFIED
:DEGREES
1415
root 0.434977 15.2862 -1.50194 0.898232 -1.47011 -0.513569
lowerback 17.2677 0.47571 -2.05301
upperback 3.55642 0.222949 -0.467386
thorax -5.86836 0.136908 0.619617
lowerneck -7.49789 -7.03259 -14.5687
upperneck 15.6836 -9.57539 11.8071
head 7.30653 -4.59185 5.3825
rclavicle -1.2921e-015 -1.03368e-014
rhumerus -19.3949 19.2207 -82.287
rradius 131.441
rwrist 23.3519
rhand 23.8005 8.03651
rfingers 7.12502
rthumb 48.0577 -14.1493
lclavicle -1.2921e-015 -1.03368e-014
lhumerus -14.7522 -28.8166 81.0998
lradius 126.774
lwrist -1.26534
lhand 6.06674 34.7197
lfingers 7.12502
lthumb 31.3869 62.0467
rfemur -24.1466 12.0748 15.3702
rtibia 45.5909
rfoot -17.4237 -12.8692
rtoes -20.7204
lfemur -23.2699 -8.9052 -16.0557
ltibia 44.1485
lfoot -17.3502 7.08329
ltoes -16.0488
1416
root 0.434113 15.2869 -1.50215 0.898043 -1.4832 -0.5127
lowerback 17.3623 0.487781 -2.06114
upperback 3.50418 0.233982 -0.467136
thorax -5.97558 0.143635 0.621494
lowerneck -7.42898 -7.04975 -14.6203
upperneck 15.6913 -9.60591 11.8295
head 7.30494 -4.61021 5.39708
rclavicle -3.97569e-015 8.34896e-015
rhumerus -19.5809 19.2716 -82.3743
rradius 131.472
rwrist 23.3473
rhand 23.7297 7.96277
rfingers 7.12502
rthumb 47.9924 -14.2536
lclavicle -3.97569e-015 8.34896e-015
lhumerus -15.0616 -28.7788 81.2556
lradius 126.688
lwrist -1.26097
lhand 6.09143 34.4669
lfingers 7.12502
lthumb 31.4104 61.7894
rfemur -24.1471 12.0796 15.3735
rtibia 45.5946
rfoot -17.3987 -12.8808
rtoes -21.0564
lfemur -23.2708 -8.90922 -16.0568
ltibia 44.1569
lfoot -17.3602 7.07576
ltoes -16.1124
1417
root 0.43256 15.2879 -1.50266 0.891452 -1.49705 -0.511979
lowerback 17.3999 0.481962 -2.07776
upperback 3.49618 0.221795 -0.472582
thorax -6.0041 0.138212 0.62765
lowerneck -7.37646 -7.04568 -14.6205
upperneck 15.6566 -9.59975 11.8034
head 7.28226 -4.61093 5.39002
rclavicle 2.48481e-015 -5.1684e-015
rhumerus -19.6157 19.3433 -82.4492
rradius 131.439
rwrist 23.3326
rhand 23.7083 7.9165
rfingers 7.12502
rthumb 47.9726 -14.3091
lclavicle 2.48481e-015 -5.1684e-015
lhumerus -15.2414 -28.6689 81.3166
lradius 126.65
lwrist -1.25015
lhand 6.29268 34.272
lfingers 7.12502
lthumb 31.6022 61.5569
rfemur -24.1424 12.0726 15.3772
rtibia 45.5947
rfoot -17.3594 -12.8215
rtoes -21.0164
lfemur -23.2638 -8.91486 -16.0522
ltibia 44.1721
lfoot -17.3783 7.0961
ltoes -16.1403
1418
root 0.431774 15.2879 -1.50407 0.923376 -1.49361 -0.512224
lowerback 17.4096 0.467816 -2.06742
upperback 3.4826 0.203837 -0.48401
thorax -6.02335 0.129475 0.613523
lowerneck -7.4765 -7.0634 -14.7688
upperneck 15.8133 -9.6283 11.9434
head 7.36945 -4.61994 5.45784
rclavicle -2.18663e-015 -1.07344e-014
rhumerus -19.5544 19.3826 -82.4872
rradius 131.413
rwrist 23.2167
rhand 23.8687 7.76484
rfingers 7.12502
rthumb 48.1205 -14.3916
lclavicle -2.18663e-015 -1.07344e-014
lhumerus -15.0594 -28.7034 81.2253
lradius 126.667
lwrist -1.24803
lhand 6.35208 34.4045
lfingers 7.12502
lthumb 31.6587 61.6783
rfemur -24.1912 12.0355 15.3688
rtibia 45.597
rfoot -17.3952 -12.7467
rtoes -20.6223
lfemur -23.3137 -8.91608 -16.0414
ltibia 44.1977
lfoot -17.3984 7.15823
ltoes -16.305
1419
root 0.430525 15.2865 -1.50539 0.922058 -1.52296 -0.542284
lowerback 17.4851 0.47355 -2.0401
upperback 3.44145 0.213575 -0.484184
thorax -6.10832 0.134689 0.595227
lowerneck -7.46924 -7.072 -14.9245
upperneck 15.9382 -9.65537 12.0836
head 7.42759 -4.63236 5.53015
rclavicle -1.49089e-015 -5.1684e-015
rhumerus -19.6062 19.4359 -82.5637
rradius 131.38
rwrist 23.1011
rhand 23.896 7.65701
rfingers 7.12502
rthumb 48.1457 -14.4875
lclavicle -1.49089e-015 -5.1684e-015
lhumerus -15.0236 -28.8341 81.232
lradius 126.702
lwrist -1.2964
lhand 5.904 34.4357
lfingers 7.12502
lthumb 31.2318 61.7927
rfemur -24.2094 12.0244 15.4104
rtibia 45.5961
rfoot -17.4096 -12.7356
rtoes -20.7273
lfemur -23.3191 -8.89806 -15.9979
ltibia 44.2325
lfoot -17.4392 7.16727
ltoes -16.2871
1420
root 0.429404 15.2845 -1.50616 0.926124 -1.53675 -0.605566
lowerback 17.516 0.475925 -1.97235
upperback 3.41595 0.228078 -0.480237
thorax -6.15248 0.141087 0.557513
lowerneck -7.27892 -7.07301 -14.8538
upperneck 15.8308 -9.66704 11.9923
head 7.35228 -4.64684 5.48989
rclavicle -5.26779e-015 -2.78299e-015
rhumerus -19.6764 19.4797 -82.6296
rradius 131.336
rwrist 23.0618
rhand 23.832 7.6517
rfingers 7.12502
rthumb 48.0867 -14.5206
lclavicle -5.26779e-015 -2.78299e-015
lhumerus -15.1306 -28.8684 81.2747
lradius 126.711
lwrist -1.34592
lhand 5.70794 34.3406
lfingers 7.12502
lthumb 31.045 61.7335
rfemur -24.2184 12.0426 15.4812
rtibia 45.5959
rfoot -17.4361 -12.7451
rtoes -20.7155
lfemur -23.3447 -8.8638 -15.92
ltibia 44.2719
lfoot -17.4174 7.10545
ltoes -16.1288
1421
root 0.428349 15.2845 -1.50779 0.946656 -1.52506 -0.637012
lowerback 17.5195 0.460077 -1.93134
upperback 3.41016 0.214043 -0.488092
thorax -6.16012 0.133578 0.528986
lowerneck -7.17762 -7.06934 -14.7364
upperneck 15.7358 -9.65808 11.8494
head 7.28908 -4.64928 5.42455
rclavicle 1.78906e-015 3.18055e-015
rhumerus -19.6716 19.4765 -82.6666
rradius 131.317
rwrist 23.01
rhand 23.8624 7.67477
rfingers 7.12502
rthumb 48.1147 -14.4844
lclavicle 1.78906e-015 3.18055e-015
lhumerus -15.1298 -28.8027 81.2619
lradius 126.675
lwrist -1.35088
lhand 5.88707 34.3133
lfingers 7.12502
lthumb 31.2157 61.6734
rfemur -24.2426 12.0275 15.5161
rtibia 45.5949
rfoot -17.4203 -12.77
rtoes -20.7277
lfemur -23.3944 -8.86907 -15.8765
ltibia 44.282
lfoot -17.3874 7.08589
ltoes -15.9963
1422
root 0.425911 15.2847 -1.50856 0.972697 -1.52687 -0.603056
lowerback 17.5081 0.458634 -2.00935
upperback 3.41341 0.198407 -0.486022
thorax -6.15032 0.127267 0.579029
lowerneck -7.3063 -7.07516 -14.8514
upperneck 15.8835 -9.65711 11.9177
head 7.36914 -4.64643 5.46493
rclavicle 5.26779e-015 -5.1684e-015
rhumerus -19.6125 19.5206 -82.6717
rradius 131.276
rwrist 23.0102
rhand 23.8226 7.71825
rfingers 7.12502
rthumb 48.078 -14.4581
lclavicle 5.26779e-015 -5.1684e-015
lhumerus -15.1616 -28.7626 81.3108
lradius 126.678
lwrist -1.41354
lhand 5.97171 34.44
lfingers 7.12502
lthumb 31.2964 61.7846
rfemur -24.2794 12.0136 15.4825
rtibia 45.5973
rfoot -17.3474 -12.7633
rtoes -20.7746
lfemur -23.4297 -8.85893 -15.9007
ltibia 44.2747
lfoot -17.371 7.0813
ltoes -15.8656
1423
root 0.42346 15.2861 -1.50753 0.978575 -1.51645 -0.506188
lowerback 17.5095 0.470546 -2.13093
upperback 3.41574 0.190482 -0.506259
thorax -6.14858 0.125402 0.628244
lowerneck -7.43 -7.09053 -14.9615
upperneck 16.045 -9.6716 11.9858
head 7.45492 -4.6509 5.50313
rclavicle 8.94531e-016 -4.37326e-015
rhumerus -19.5723 19.5188 -82.6647
rradius 131.231
rwrist 23.0268
rhand 23.8112 7.86127
rfingers 7.12502
rthumb 48.0675 -14.32
lclavicle 8.94531e-016 -4.37326e-015
lhumerus -15.2275 -28.7922 81.3651
lradius 126.695
lwrist -1.41367
lhand 6.08182 34.606
lfingers 7.12502
lthumb 31.4013 61.9303
rfemur -24.2883 11.9923 15.3838
rtibia 45.6016
rfoot -17.2926 -12.751
rtoes -20.6703
lfemur -23.4123 -8.87333 -16.0026
ltibia 44.2394
lfoot -17.3587 7.1058
ltoes -15.8712
1424
root 0.422177 15.2879 -1.50594 0.989893 -1.5 -0.53888
lowerback 17.4942 0.463875 -2.08262
upperback 3.42188 0.189862 -0.52357
thorax -6.13357 0.123973 0.582601
lowerneck -7.48294 -7.09943 -14.9244
upperneck 16.0893 -9.68274 11.9705
head 7.47768 -4.65339 5.48947
rclavicle 4.96962e-016 -1.59028e-015
rhumerus -19.5594 19.5069 -82.7054
rradius 131.229
rwrist 23.0571
rhand 23.8681 7.91665
rfingers 7.12502
rthumb 48.1199 -14.24
lclavicle 4.96962e-016 -1.59028e-015
lhumerus -15.2339 -28.8289 81.3517
lradius 126.663
lwrist -1.3968
lhand 6.37513 34.7859
lfingers 7.12502
lthumb 31.6807 62.0554
rfemur -24.2837 11.9777 15.4306
rtibia 45.5965
rfoot -17.2712 -12.7856
rtoes -20.8163
lfemur -23.4104 -8.86718 -15.9632
ltibia 44.2212
lfoot -17.3678 7.15661
ltoes -16.3411
1425
root 0.421049 15.2894 -1.50495 0.992552 -1.5138 -0.602735
lowerback 17.449 0.467208 -2.02967
upperback 3.45668 0.20613 -0.51593
thorax -6.07223 0.130279 0.55736
lowerneck -7.47523 -7.11811 -14.9494
upperneck 16.0519 -9.70437 11.9786
head 7.46918 -4.66476 5.49348
rclavicle -1.09332e-015 8.74653e-015
rhumerus -19.5022 19.5028 -82.6945
rradius 131.226
rwrist 23.066
rhand 23.984 7.95573
rfingers 7.12502
rthumb 48.2267 -14.1506
lclavicle -1.09332e-015 8.74653e-015
lhumerus -15.2117 -28.8706 81.3434
lradius 126.737
lwrist -1.51598
lhand 6.59402 35.101
lfingers 7.12502
lthumb 31.8892 62.3291
rfemur -24.2778 11.9907 15.5036
rtibia 45.5844
rfoot -17.3617 -12.7381
rtoes -20.7559
lfemur -23.4037 -8.82738 -15.8868
ltibia 44.2128
lfoot -17.3812 7.17336
ltoes -16.5562
1426
root 0.420197 15.2886 -1.50518 1.01104 -1.50914 -0.66766
lowerback 17.3973 0.460086 -1.9548
upperback 3.49708 0.212638 -0.511181
thorax -6.00107 0.131401 0.51885
lowerneck -7.49036 -7.13519 -14.9769
upperneck 16.0089 -9.72215 11.9994
head 7.46313 -4.6727 5.502
rclavicle -6.85807e-015 -3.57812e-015
rhumerus -19.423 19.504 -82.6955
rradius 131.2
rwrist 23.099
rhand 23.9778 8.00404
rfingers 7.12502
rthumb 48.2211 -14.105
lclavicle -6.85807e-015 -3.57812e-015
lhumerus -15.2029 -28.8961 81.3456
lradius 126.825
lwrist -1.58108
lhand 6.53041 35.2318
lfingers 7.12502
lthumb 31.8286 62.472
rfemur -24.29 11.9918 15.5729
rtibia 45.5683
rfoot -17.4261 -12.7103
rtoes -20.5079
lfemur -23.428 -8.81246 -15.8034
ltibia 44.2307
lfoot -17.3623 7.10628
ltoes -16.379
1427
root 0.418816 15.2884 -1.50381 1.01655 -1.49029 -0.669504
lowerback 17.4103 0.454689 -1.95104
upperback 3.4749 0.204468 -0.527616
thorax -6.03154 0.12764 0.500897
lowerneck -7.4353 -7.10757 -14.9689
upperneck 16.0304 -9.69286 11.9915
head 7.45499 -4.66083 5.50337
rclavicle 7.95139e-015 -3.97569e-015
rhumerus -19.457 19.5008 -82.7457
rradius 131.195
rwrist 23.1842
rhand 23.9842 7.99662
rfingers 7.12502
rthumb 48.2269 -14.1096
lclavicle 7.95139e-015 -3.97569e-015
lhumerus -15.3249 -28.8998 81.3977
lradius 126.844
lwrist -1.55764
lhand 6.44488 35.1723
lfingers 7.12502
lthumb 31.7471 62.4287
rfemur -24.2756 11.9788 15.5806
rtibia 45.552
rfoot -17.4041 -12.7274
rtoes -20.5173
lfemur -23.4274 -8.83714 -15.7912
ltibia 44.2522
lfoot -17.4106 7.00902
ltoes -15.8592
1428
root 0.417651 15.2884 -1.50296 1.00729 -1.46673 -0.673061
lowerback 17.4224 0.450607 -1.93101
upperback 3.47908 0.201011 -0.54941
thorax -6.03344 0.125484 0.467065
lowerneck -7.39635 -7.09162 -14.949
upperneck 16.001 -9.67864 12.0032
head 7.43583 -4.65334 5.50661
rclavicle -7.15625e-015 9.54166e-015
rhumerus -19.4619 19.4963 -82.7827
rradius 131.211
rwrist 23.2004
rhand 23.947 7.91466
rfingers 7.12502
rthumb 48.1927 -14.2078
lclavicle -7.15625e-015 9.54166e-015
lhumerus -15.3416 -28.8772 81.4073
lradius 126.833
lwrist -1.53007
lhand 6.4977 35.0213
lfingers 7.12502
lthumb 31.7974 62.2677
rfemur -24.2502 11.9406 15.5973
rtibia 45.545
rfoot -17.365 -12.7184
rtoes -20.6223
lfemur -23.4286 -8.87445 -15.7834
ltibia 44.2649
lfoot -17.4427 7.05501
ltoes -16.0298
